<?xml version="1.0" standalone="no"?>
<!DOCTYPE svg PUBLIC "-//W3C//DTD SVG 20010904//EN"
 "http://www.w3.org/TR/2001/REC-SVG-20010904/DTD/svg10.dtd">
<svg version="1.0" xmlns="http://www.w3.org/2000/svg"
 width="576.000000px" height="727.000000px" viewBox="0 0 576.000000 727.000000"
 preserveAspectRatio="xMidYMid meet">

<g transform="translate(0.000000,727.000000) scale(0.100000,-0.100000)"
fill="#dfa643" stroke="none">
<path d="M2518 7256 c-82 -30 -180 -108 -212 -170 -40 -78 44 -73 153 8 19 14
45 26 58 26 39 0 27 -37 -42 -130 -132 -177 -148 -291 -57 -392 48 -53 103
-83 189 -102 169 -38 317 1 407 105 130 153 55 397 -131 425 -86 13 -184 -51
-199 -131 -15 -82 22 -142 94 -152 39 -5 40 -6 27 -27 -21 -31 -87 -66 -124
-66 -18 0 -50 9 -72 21 -46 23 -79 81 -79 139 0 50 38 134 98 221 28 41 55 89
58 107 18 88 -74 153 -168 118z"/>
<path d="M3400 6641 c-14 -5 -44 -20 -66 -34 -76 -48 -221 -116 -322 -151
-168 -58 -241 -69 -477 -70 -184 -1 -214 -3 -238 -19 -52 -34 -24 -61 99 -93
136 -36 374 -44 525 -19 239 39 472 131 566 220 37 36 43 47 43 84 0 73 -52
105 -130 82z"/>
<path d="M1583 6545 c-127 -35 -226 -112 -313 -243 -211 -314 -86 -721 390
-1277 103 -120 121 -145 160 -224 79 -159 81 -384 5 -612 -32 -96 -9 -69 55
66 61 128 80 206 80 331 0 117 -18 199 -64 299 -40 86 -71 133 -182 275 -318
408 -407 706 -285 955 83 168 194 246 351 248 199 1 348 -151 381 -391 16
-118 4 -201 -39 -267 -20 -30 -39 -55 -43 -55 -4 0 -12 14 -19 31 -7 16 -27
41 -44 54 -124 94 -292 -35 -232 -178 43 -103 191 -135 323 -71 151 73 233
237 233 464 0 172 -44 290 -151 404 -76 82 -148 129 -252 168 -69 26 -99 31
-192 34 -76 3 -126 -1 -162 -11z"/>
<path d="M3518 6290 c-199 -110 -348 -170 -513 -206 -61 -13 -131 -18 -295
-19 -118 -1 -223 -5 -232 -9 -45 -21 -26 -70 35 -87 189 -51 400 -63 587 -34
233 37 479 133 567 222 43 43 45 47 40 91 -10 92 -73 106 -189 42z"/>
<path d="M3619 5921 c-290 -149 -435 -186 -728 -184 -210 2 -261 -7 -261 -45
0 -30 20 -40 126 -68 136 -36 352 -44 509 -19 248 39 499 137 584 230 43 47
48 63 30 114 -26 74 -72 69 -260 -28z"/>
<path d="M4267 5685 c-158 -40 -387 -211 -387 -290 0 -26 21 -17 77 36 124
118 314 148 495 79 157 -59 250 -183 234 -314 -18 -151 -154 -297 -633 -674
-219 -172 -254 -202 -237 -202 16 0 365 185 473 251 315 191 516 392 567 568
24 80 15 200 -19 271 -59 125 -176 227 -302 266 -73 22 -198 27 -268 9z"/>
<path d="M3606 5561 c-9 -10 -20 -38 -24 -62 l-7 -44 -100 -6 c-161 -10 -211
-45 -187 -128 12 -38 11 -40 -23 -74 -41 -41 -45 -72 -14 -111 39 -49 147 -86
252 -86 l40 0 -7 -112 c-26 -432 -158 -838 -403 -1238 -22 -36 -88 -135 -147
-220 -250 -360 -392 -649 -447 -913 -39 -182 -27 -401 29 -565 l17 -51 0 227
c0 187 3 241 19 307 61 261 129 390 430 814 395 557 604 1005 681 1461 37 215
29 558 -16 723 -26 93 -56 119 -93 78z m-60 -181 c34 0 34 -1 34 -45 l0 -45
-84 0 c-76 0 -86 2 -100 22 -21 29 -20 34 5 59 18 18 29 20 67 15 24 -3 60 -6
78 -6z m2 -166 c18 -5 22 -13 22 -50 l0 -44 -105 0 c-92 0 -108 3 -125 20 -24
24 -25 38 -3 62 13 15 31 18 102 18 47 0 96 -3 109 -6z"/>
<path d="M2660 5226 c0 -2 41 -27 91 -56 128 -74 239 -160 287 -223 78 -100
119 -235 108 -347 l-5 -55 15 35 c25 55 35 141 24 201 -28 148 -141 269 -348
373 -75 38 -172 78 -172 72z"/>
<path d="M1029 5131 c-90 -29 -156 -71 -224 -142 -102 -109 -162 -233 -212
-439 -23 -94 -25 -118 -20 -235 9 -205 56 -336 156 -436 132 -131 310 -153
501 -63 125 59 249 204 308 362 21 55 26 90 30 197 4 123 3 131 -17 149 -45
41 -140 18 -233 -57 -88 -70 -228 -276 -228 -336 0 -26 32 -43 66 -35 15 4 60
38 100 77 51 48 79 67 90 63 21 -8 16 -19 -54 -112 -130 -173 -232 -219 -359
-160 -48 23 -54 30 -92 108 -98 199 -89 386 29 618 99 192 149 230 302 230 83
0 90 -2 120 -29 33 -29 33 -30 33 -123 0 -51 -4 -119 -9 -150 -9 -58 -9 -58
17 -58 36 0 70 40 118 135 66 135 73 232 22 327 -32 58 -85 96 -160 114 -81
19 -216 17 -284 -5z"/>
<path d="M2560 5032 c0 -20 29 -84 47 -105 10 -11 20 -46 24 -86 18 -164 141
-286 299 -299 36 -3 68 -9 71 -14 3 -5 13 14 22 43 33 101 16 186 -47 234 -39
29 -286 186 -286 181 0 -2 70 -54 154 -116 115 -84 158 -120 165 -143 12 -33
13 -108 2 -147 -6 -21 -9 -17 -29 36 -30 83 -78 135 -185 198 -93 55 -178 132
-216 196 -12 19 -21 29 -21 22z m228 -261 c18 -10 20 -15 12 -31 -32 -59 13
-137 73 -127 18 3 41 8 52 12 17 5 25 -2 43 -34 l23 -41 -48 0 c-69 0 -157 44
-215 109 -49 54 -88 140 -88 192 l0 29 63 -48 c34 -27 72 -55 85 -61z"/>
<path d="M2297 4250 c-37 -16 -100 -39 -140 -52 -40 -12 -73 -23 -75 -24 -4
-2 100 -104 106 -104 3 0 43 14 88 31 l82 31 4 57 c2 31 8 64 12 74 10 22 4
21 -77 -13z"/>
<path d="M3737 4159 c-45 -11 -122 -49 -161 -82 l-30 -24 120 -7 c289 -17 420
-83 455 -228 24 -103 -14 -244 -90 -331 -42 -47 -138 -93 -226 -108 -54 -9
-98 -9 -197 1 -182 18 -324 17 -370 -3 -48 -20 -48 -33 0 -41 58 -9 169 -69
239 -128 221 -187 357 -513 339 -809 -7 -117 -45 -271 -88 -359 -46 -97 -161
-206 -269 -259 -232 -112 -525 -115 -789 -8 -156 63 -298 165 -398 287 -65 80
-145 239 -173 345 -55 210 -26 770 65 1254 26 137 29 169 17 153 -9 -10 -41
-50 -72 -88 -202 -247 -301 -484 -329 -785 -19 -202 12 -467 76 -650 166 -478
525 -789 981 -850 288 -38 688 59 893 216 81 62 218 209 273 292 219 331 242
692 70 1101 l-35 83 28 21 c16 11 72 64 124 117 152 153 206 278 198 450 -6
110 -33 190 -97 281 -70 101 -246 171 -425 169 -50 -1 -108 -5 -129 -10z"/>
<path d="M4505 4089 c-89 -78 -89 -291 0 -475 54 -113 112 -174 203 -217 65
-31 71 -32 197 -32 105 0 145 5 210 23 114 33 208 86 288 163 65 63 69 69 63
100 -8 42 -33 69 -63 69 -13 0 -62 -22 -111 -49 -107 -61 -216 -105 -300 -122
-140 -27 -243 33 -284 165 -5 17 -13 87 -18 156 -9 137 -27 198 -68 230 -36
29 -75 25 -117 -11z"/>
<path d="M2340 4078 c-25 -16 -66 -36 -92 -46 -27 -9 -48 -20 -48 -24 0 -16
114 -140 173 -187 76 -60 113 -77 133 -60 27 23 15 76 -50 209 -35 72 -66 133
-68 134 -2 2 -23 -10 -48 -26z"/>
<path d="M5018 4061 c-93 -30 -148 -103 -148 -194 0 -91 33 -147 112 -188 97
-50 239 4 277 104 19 49 13 130 -12 178 -40 76 -152 124 -229 100z"/>
<path d="M796 3720 c-207 -33 -380 -115 -514 -244 -146 -140 -222 -304 -263
-571 -18 -115 -16 -351 4 -460 83 -456 388 -809 922 -1066 165 -80 229 -101
390 -134 311 -63 609 -55 948 26 71 17 127 33 125 35 -2 2 -46 -4 -98 -14 -71
-12 -154 -16 -325 -16 -211 0 -240 2 -356 27 -227 48 -419 124 -604 240 -379
236 -671 638 -746 1027 -18 92 -15 272 4 346 43 160 122 298 225 396 127 119
267 171 462 172 151 0 213 -15 287 -66 177 -126 279 -262 303 -408 21 -123
-24 -257 -132 -390 l-50 -62 63 34 c76 40 180 134 216 195 127 217 57 523
-173 750 -73 72 -187 132 -309 164 -92 23 -288 33 -379 19z"/>
<path d="M4400 3249 c-69 -10 -175 -55 -204 -88 -17 -18 -15 -20 51 -41 359
-116 688 -468 774 -827 26 -108 22 -226 -11 -322 -34 -97 -110 -203 -183 -255
-319 -226 -769 -356 -1362 -396 -555 -37 -748 -64 -965 -136 -237 -79 -354
-190 -380 -361 -29 -183 55 -368 228 -503 42 -32 78 -58 79 -56 2 2 -24 47
-58 101 -109 173 -154 296 -147 399 5 74 27 122 80 174 143 142 399 190 1188
222 308 13 419 22 660 56 436 61 720 172 917 358 175 165 262 336 299 589 57
385 -97 745 -404 947 -165 109 -387 163 -562 139z"/>
</g>
</svg>
